<mxfile host="app.diagrams.net" modified="2022-07-29T06:18:28.169Z" agent="5.0 (Windows NT 10.0; Win64; x64) AppleWebKit/537.36 (KHTML, like Gecko) Chrome/103.0.0.0 Safari/537.36" etag="sYThqHioftOlFR6iexWc" version="20.2.2" type="github" pages="4">
  <diagram id="_5GUIrbD9RQOqBY5dVK8" name="Main">
    <mxGraphModel dx="1660" dy="1273" grid="1" gridSize="10" guides="1" tooltips="1" connect="1" arrows="1" fold="1" page="1" pageScale="1" pageWidth="1600" pageHeight="900" background="#000000" math="0" shadow="0">
      <root>
        <mxCell id="0" />
        <mxCell id="1" parent="0" />
        <mxCell id="pWPn7xd0X_Gq6Vy7VP8S-2" value="&lt;font color=&quot;#6c1641&quot;&gt;Options&lt;/font&gt;" style="strokeWidth=1;shadow=0;dashed=0;align=center;html=1;shape=mxgraph.mockup.buttons.button;strokeColor=#E993BE;fontColor=#ffffff;mainText=;buttonStyle=round;fontSize=17;fontStyle=1;fillColor=#93E9BE;whiteSpace=wrap;" parent="1" vertex="1">
          <mxGeometry x="40" y="510" width="150" height="50" as="geometry" />
        </mxCell>
        <mxCell id="Ukd0ut-uW_zSZoWiR2oo-19" value="" style="verticalLabelPosition=bottom;shadow=0;dashed=0;align=center;html=1;verticalAlign=top;strokeWidth=1;shape=mxgraph.mockup.misc.help_icon;fillColor=#93E9BE;strokeColor=#93E9BE;" parent="1" vertex="1">
          <mxGeometry x="1550" y="850" width="32" height="32" as="geometry" />
        </mxCell>
        <mxCell id="Ukd0ut-uW_zSZoWiR2oo-21" value="&lt;font color=&quot;#6c1641&quot;&gt;Load&lt;/font&gt;" style="strokeWidth=1;shadow=0;dashed=0;align=center;html=1;shape=mxgraph.mockup.buttons.button;strokeColor=#E993BE;fontColor=#ffffff;mainText=;buttonStyle=round;fontSize=17;fontStyle=1;fillColor=#93E9BE;whiteSpace=wrap;" parent="1" vertex="1">
          <mxGeometry x="40" y="425" width="150" height="50" as="geometry" />
        </mxCell>
        <mxCell id="Ukd0ut-uW_zSZoWiR2oo-22" value="&lt;font color=&quot;#6c1641&quot;&gt;Continue&lt;/font&gt;" style="strokeWidth=1;shadow=1;dashed=0;align=center;html=1;shape=mxgraph.mockup.buttons.button;strokeColor=#E993BE;fontColor=#ffffff;mainText=;buttonStyle=round;fontSize=17;fontStyle=1;fillColor=#93E9BE;whiteSpace=wrap;" parent="1" vertex="1">
          <mxGeometry x="40" y="340" width="150" height="50" as="geometry" />
        </mxCell>
        <mxCell id="Ukd0ut-uW_zSZoWiR2oo-23" value="&lt;font color=&quot;#6c1641&quot;&gt;New Game&lt;/font&gt;" style="strokeWidth=1;shadow=0;dashed=0;align=center;html=1;shape=mxgraph.mockup.buttons.button;strokeColor=#E993BE;fontColor=#ffffff;mainText=;buttonStyle=round;fontSize=17;fontStyle=1;fillColor=#93E9BE;whiteSpace=wrap;" parent="1" vertex="1">
          <mxGeometry x="40" y="260" width="150" height="50" as="geometry" />
        </mxCell>
        <mxCell id="pWPn7xd0X_Gq6Vy7VP8S-1" value="&lt;font color=&quot;#6c1641&quot;&gt;Quit&lt;/font&gt;" style="strokeWidth=1;shadow=0;dashed=0;align=center;html=1;shape=mxgraph.mockup.buttons.button;strokeColor=#E993BE;fontColor=#ffffff;mainText=;buttonStyle=round;fontSize=17;fontStyle=1;fillColor=#93E9BE;whiteSpace=wrap;" parent="1" vertex="1">
          <mxGeometry x="40" y="600" width="150" height="50" as="geometry" />
        </mxCell>
        <mxCell id="2Hg5nwpN7-_w0b_izmiZ-2" value="&lt;p style=&quot;text-align: justify;&quot;&gt;&lt;span style=&quot;font-family: &amp;quot;Comic Sans MS&amp;quot;; font-size: 72px; font-style: normal; font-variant-ligatures: normal; font-variant-caps: normal; font-weight: 400; letter-spacing: normal; orphans: 2; text-align: center; text-indent: 0px; text-transform: none; widows: 2; word-spacing: 0px; -webkit-text-stroke-width: 0px; text-decoration-thickness: initial; text-decoration-style: initial; text-decoration-color: initial; float: none; display: inline !important;&quot;&gt;&lt;font color=&quot;#93e9be&quot;&gt;Hacker&#39;s VS Robots&lt;/font&gt;&lt;/span&gt;&lt;/p&gt;" style="text;html=1;strokeColor=none;fillColor=none;align=center;verticalAlign=middle;whiteSpace=wrap;rounded=0;fontFamily=Comic Sans MS;fontSize=72;rotation=20;" vertex="1" parent="1">
          <mxGeometry x="710" y="230" width="700" height="100" as="geometry" />
        </mxCell>
      </root>
    </mxGraphModel>
  </diagram>
  <diagram name="Save Menu" id="-6fZl7G_bSp2-JoxQMT1">
    <mxGraphModel dx="1660" dy="1273" grid="1" gridSize="10" guides="1" tooltips="1" connect="1" arrows="1" fold="1" page="1" pageScale="1" pageWidth="1600" pageHeight="900" background="#000000" math="0" shadow="0">
      <root>
        <mxCell id="pZLyu4WgLfXpD3YrM3kJ-0" />
        <mxCell id="pZLyu4WgLfXpD3YrM3kJ-1" parent="pZLyu4WgLfXpD3YrM3kJ-0" />
        <mxCell id="pZLyu4WgLfXpD3YrM3kJ-8" value="" style="verticalLabelPosition=bottom;shadow=0;dashed=0;align=center;html=1;verticalAlign=top;strokeWidth=1;shape=mxgraph.mockup.misc.help_icon;" vertex="1" parent="pZLyu4WgLfXpD3YrM3kJ-1">
          <mxGeometry x="1550" y="850" width="32" height="32" as="geometry" />
        </mxCell>
        <mxCell id="iyWq-yLDI4LIlccW6otH-0" value="&lt;p style=&quot;text-align: justify;&quot;&gt;&lt;span style=&quot;font-family: &amp;quot;Comic Sans MS&amp;quot;; font-size: 72px; font-style: normal; font-variant-ligatures: normal; font-variant-caps: normal; font-weight: 400; letter-spacing: normal; orphans: 2; text-align: center; text-indent: 0px; text-transform: none; widows: 2; word-spacing: 0px; -webkit-text-stroke-width: 0px; text-decoration-thickness: initial; text-decoration-style: initial; text-decoration-color: initial; float: none; display: inline !important;&quot;&gt;&lt;font color=&quot;#93e9be&quot;&gt;Hacker&#39;s VS Robots&lt;/font&gt;&lt;/span&gt;&lt;/p&gt;" style="text;html=1;strokeColor=none;fillColor=none;align=center;verticalAlign=middle;whiteSpace=wrap;rounded=0;fontFamily=Comic Sans MS;fontSize=72;rotation=0;" vertex="1" parent="pZLyu4WgLfXpD3YrM3kJ-1">
          <mxGeometry x="450" y="50" width="700" height="130" as="geometry" />
        </mxCell>
        <mxCell id="3XIuEJSzGwiu4e4q1zF5-0" value="&lt;font color=&quot;#6c1641&quot;&gt;Options&lt;/font&gt;" style="strokeWidth=1;shadow=0;dashed=0;align=center;html=1;shape=mxgraph.mockup.buttons.button;strokeColor=#E993BE;fontColor=#ffffff;mainText=;buttonStyle=round;fontSize=17;fontStyle=1;fillColor=#93E9BE;whiteSpace=wrap;" vertex="1" parent="pZLyu4WgLfXpD3YrM3kJ-1">
          <mxGeometry x="40" y="505" width="150" height="50" as="geometry" />
        </mxCell>
        <mxCell id="3XIuEJSzGwiu4e4q1zF5-1" value="&lt;font color=&quot;#6c1641&quot;&gt;Load&lt;/font&gt;" style="strokeWidth=1;shadow=0;dashed=0;align=center;html=1;shape=mxgraph.mockup.buttons.button;strokeColor=#E993BE;fontColor=#ffffff;mainText=;buttonStyle=round;fontSize=17;fontStyle=1;fillColor=#93E9BE;whiteSpace=wrap;" vertex="1" parent="pZLyu4WgLfXpD3YrM3kJ-1">
          <mxGeometry x="40" y="420" width="150" height="50" as="geometry" />
        </mxCell>
        <mxCell id="3XIuEJSzGwiu4e4q1zF5-2" value="&lt;font color=&quot;#6c1641&quot;&gt;Continue&lt;/font&gt;" style="strokeWidth=1;shadow=1;dashed=0;align=center;html=1;shape=mxgraph.mockup.buttons.button;strokeColor=#E993BE;fontColor=#ffffff;mainText=;buttonStyle=round;fontSize=17;fontStyle=1;fillColor=#93E9BE;whiteSpace=wrap;" vertex="1" parent="pZLyu4WgLfXpD3YrM3kJ-1">
          <mxGeometry x="40" y="335" width="150" height="50" as="geometry" />
        </mxCell>
        <mxCell id="3XIuEJSzGwiu4e4q1zF5-3" value="&lt;font color=&quot;#6c1641&quot;&gt;New Game&lt;/font&gt;" style="strokeWidth=1;shadow=0;dashed=0;align=center;html=1;shape=mxgraph.mockup.buttons.button;strokeColor=#E993BE;fontColor=#ffffff;mainText=;buttonStyle=round;fontSize=17;fontStyle=1;fillColor=#93E9BE;whiteSpace=wrap;" vertex="1" parent="pZLyu4WgLfXpD3YrM3kJ-1">
          <mxGeometry x="40" y="255" width="150" height="50" as="geometry" />
        </mxCell>
        <mxCell id="3XIuEJSzGwiu4e4q1zF5-4" value="&lt;font color=&quot;#6c1641&quot;&gt;Quit&lt;/font&gt;" style="strokeWidth=1;shadow=0;dashed=0;align=center;html=1;shape=mxgraph.mockup.buttons.button;strokeColor=#E993BE;fontColor=#ffffff;mainText=;buttonStyle=round;fontSize=17;fontStyle=1;fillColor=#93E9BE;whiteSpace=wrap;" vertex="1" parent="pZLyu4WgLfXpD3YrM3kJ-1">
          <mxGeometry x="40" y="595" width="150" height="50" as="geometry" />
        </mxCell>
      </root>
    </mxGraphModel>
  </diagram>
  <diagram name="Options Menu" id="BjaFdvrozqveuFBgUKbV">
    <mxGraphModel dx="1660" dy="1273" grid="1" gridSize="10" guides="1" tooltips="1" connect="1" arrows="1" fold="1" page="1" pageScale="1" pageWidth="1600" pageHeight="900" background="#000000" math="0" shadow="0">
      <root>
        <mxCell id="weFvLTDNCtRDwKqFHZ_--0" />
        <mxCell id="weFvLTDNCtRDwKqFHZ_--1" parent="weFvLTDNCtRDwKqFHZ_--0" />
        <mxCell id="weFvLTDNCtRDwKqFHZ_--3" value="Option 1" style="strokeWidth=1;shadow=0;dashed=0;align=center;html=1;shape=mxgraph.mockup.forms.comboBox;strokeColor=#999999;fillColor=#ddeeff;align=left;fillColor2=#aaddff;mainText=;fontColor=#666666;fontSize=17;spacingLeft=3;" parent="weFvLTDNCtRDwKqFHZ_--1" vertex="1">
          <mxGeometry x="550" y="200" width="150" height="30" as="geometry" />
        </mxCell>
        <mxCell id="weFvLTDNCtRDwKqFHZ_--4" value="" style="verticalLabelPosition=bottom;shadow=0;dashed=0;align=center;html=1;verticalAlign=top;strokeWidth=1;shape=mxgraph.mockup.forms.horSlider;strokeColor=#999999;sliderStyle=basic;sliderPos=20;handleStyle=circle;fillColor2=#ddeeff;" parent="weFvLTDNCtRDwKqFHZ_--1" vertex="1">
          <mxGeometry x="1100" y="470" width="150" height="30" as="geometry" />
        </mxCell>
        <mxCell id="weFvLTDNCtRDwKqFHZ_--5" value="" style="verticalLabelPosition=bottom;shadow=0;dashed=0;align=center;html=1;verticalAlign=top;strokeWidth=1;shape=mxgraph.mockup.misc.volumeSlider;barPos=80;fillColor=#cccccc;strokeColor=#999999;fillColor2=#ddeeff;" parent="weFvLTDNCtRDwKqFHZ_--1" vertex="1">
          <mxGeometry x="1050" y="600" width="250" height="30" as="geometry" />
        </mxCell>
        <mxCell id="weFvLTDNCtRDwKqFHZ_--6" value="" style="verticalLabelPosition=bottom;shadow=0;dashed=0;align=center;html=1;verticalAlign=top;strokeWidth=1;shape=mxgraph.mockup.misc.volumeSlider;barPos=80;fillColor=#cccccc;strokeColor=#999999;fillColor2=#ddeeff;" parent="weFvLTDNCtRDwKqFHZ_--1" vertex="1">
          <mxGeometry x="1050" y="660" width="250" height="30" as="geometry" />
        </mxCell>
        <mxCell id="weFvLTDNCtRDwKqFHZ_--7" value="" style="verticalLabelPosition=bottom;shadow=0;dashed=0;align=center;html=1;verticalAlign=top;strokeWidth=1;shape=mxgraph.mockup.misc.volumeSlider;barPos=80;fillColor=#cccccc;strokeColor=#999999;fillColor2=#ddeeff;" parent="weFvLTDNCtRDwKqFHZ_--1" vertex="1">
          <mxGeometry x="1050" y="630" width="250" height="30" as="geometry" />
        </mxCell>
        <mxCell id="weFvLTDNCtRDwKqFHZ_--8" value="" style="verticalLabelPosition=bottom;shadow=0;dashed=0;align=center;html=1;verticalAlign=top;strokeWidth=1;shape=mxgraph.mockup.misc.help_icon;" parent="weFvLTDNCtRDwKqFHZ_--1" vertex="1">
          <mxGeometry x="1550" y="850" width="32" height="32" as="geometry" />
        </mxCell>
        <mxCell id="eJMIrAFKfJ9ilbDn59ZZ-0" value="&lt;font color=&quot;#6c1641&quot;&gt;Options&lt;/font&gt;" style="strokeWidth=1;shadow=0;dashed=0;align=center;html=1;shape=mxgraph.mockup.buttons.button;strokeColor=#E993BE;fontColor=#ffffff;mainText=;buttonStyle=round;fontSize=17;fontStyle=1;fillColor=#93E9BE;whiteSpace=wrap;" vertex="1" parent="weFvLTDNCtRDwKqFHZ_--1">
          <mxGeometry x="40" y="505" width="150" height="50" as="geometry" />
        </mxCell>
        <mxCell id="eJMIrAFKfJ9ilbDn59ZZ-1" value="&lt;font color=&quot;#6c1641&quot;&gt;Load&lt;/font&gt;" style="strokeWidth=1;shadow=0;dashed=0;align=center;html=1;shape=mxgraph.mockup.buttons.button;strokeColor=#E993BE;fontColor=#ffffff;mainText=;buttonStyle=round;fontSize=17;fontStyle=1;fillColor=#93E9BE;whiteSpace=wrap;" vertex="1" parent="weFvLTDNCtRDwKqFHZ_--1">
          <mxGeometry x="40" y="420" width="150" height="50" as="geometry" />
        </mxCell>
        <mxCell id="eJMIrAFKfJ9ilbDn59ZZ-2" value="&lt;font color=&quot;#6c1641&quot;&gt;Continue&lt;/font&gt;" style="strokeWidth=1;shadow=1;dashed=0;align=center;html=1;shape=mxgraph.mockup.buttons.button;strokeColor=#E993BE;fontColor=#ffffff;mainText=;buttonStyle=round;fontSize=17;fontStyle=1;fillColor=#93E9BE;whiteSpace=wrap;" vertex="1" parent="weFvLTDNCtRDwKqFHZ_--1">
          <mxGeometry x="40" y="335" width="150" height="50" as="geometry" />
        </mxCell>
        <mxCell id="eJMIrAFKfJ9ilbDn59ZZ-3" value="&lt;font color=&quot;#6c1641&quot;&gt;New Game&lt;/font&gt;" style="strokeWidth=1;shadow=0;dashed=0;align=center;html=1;shape=mxgraph.mockup.buttons.button;strokeColor=#E993BE;fontColor=#ffffff;mainText=;buttonStyle=round;fontSize=17;fontStyle=1;fillColor=#93E9BE;whiteSpace=wrap;" vertex="1" parent="weFvLTDNCtRDwKqFHZ_--1">
          <mxGeometry x="40" y="255" width="150" height="50" as="geometry" />
        </mxCell>
        <mxCell id="eJMIrAFKfJ9ilbDn59ZZ-4" value="&lt;font color=&quot;#6c1641&quot;&gt;Quit&lt;/font&gt;" style="strokeWidth=1;shadow=0;dashed=0;align=center;html=1;shape=mxgraph.mockup.buttons.button;strokeColor=#E993BE;fontColor=#ffffff;mainText=;buttonStyle=round;fontSize=17;fontStyle=1;fillColor=#93E9BE;whiteSpace=wrap;" vertex="1" parent="weFvLTDNCtRDwKqFHZ_--1">
          <mxGeometry x="40" y="595" width="150" height="50" as="geometry" />
        </mxCell>
        <mxCell id="lxSrj0zrnHl9sAGerkR9-1" value="&lt;font color=&quot;#6c1641&quot;&gt;Credits&lt;br&gt;&lt;/font&gt;" style="strokeWidth=1;shadow=0;dashed=0;align=center;html=1;shape=mxgraph.mockup.buttons.button;strokeColor=#E993BE;fontColor=#ffffff;mainText=;buttonStyle=round;fontSize=17;fontStyle=1;fillColor=#93E9BE;whiteSpace=wrap;" vertex="1" parent="weFvLTDNCtRDwKqFHZ_--1">
          <mxGeometry x="650" y="645" width="150" height="50" as="geometry" />
        </mxCell>
        <mxCell id="lxSrj0zrnHl9sAGerkR9-2" value="&lt;font color=&quot;#6c1641&quot;&gt;Developer Contact&lt;br&gt;&lt;/font&gt;" style="strokeWidth=1;shadow=0;dashed=0;align=center;html=1;shape=mxgraph.mockup.buttons.button;strokeColor=#E993BE;fontColor=#ffffff;mainText=;buttonStyle=round;fontSize=17;fontStyle=1;fillColor=#93E9BE;whiteSpace=wrap;" vertex="1" parent="weFvLTDNCtRDwKqFHZ_--1">
          <mxGeometry x="658.34" y="730" width="150" height="50" as="geometry" />
        </mxCell>
        <mxCell id="anmwjJJ5CzoavzydheT0-0" value="&lt;p style=&quot;text-align: justify;&quot;&gt;&lt;span style=&quot;font-family: &amp;quot;Comic Sans MS&amp;quot;; font-size: 72px; font-style: normal; font-variant-ligatures: normal; font-variant-caps: normal; font-weight: 400; letter-spacing: normal; orphans: 2; text-align: center; text-indent: 0px; text-transform: none; widows: 2; word-spacing: 0px; -webkit-text-stroke-width: 0px; text-decoration-thickness: initial; text-decoration-style: initial; text-decoration-color: initial; float: none; display: inline !important;&quot;&gt;&lt;font color=&quot;#93e9be&quot;&gt;Hacker&#39;s VS Robots&lt;/font&gt;&lt;/span&gt;&lt;/p&gt;" style="text;html=1;strokeColor=none;fillColor=none;align=center;verticalAlign=middle;whiteSpace=wrap;rounded=0;fontFamily=Comic Sans MS;fontSize=72;rotation=0;" vertex="1" parent="weFvLTDNCtRDwKqFHZ_--1">
          <mxGeometry x="450" y="50" width="700" height="130" as="geometry" />
        </mxCell>
      </root>
    </mxGraphModel>
  </diagram>
  <diagram name="New Game" id="NEAzSvd_VhyssyVXWwWS">
    <mxGraphModel dx="1660" dy="1273" grid="1" gridSize="10" guides="1" tooltips="1" connect="1" arrows="1" fold="1" page="1" pageScale="1" pageWidth="1600" pageHeight="900" background="#000000" math="0" shadow="0">
      <root>
        <mxCell id="WDlT2bcxv0zylc2aZcua-0" />
        <mxCell id="WDlT2bcxv0zylc2aZcua-1" parent="WDlT2bcxv0zylc2aZcua-0" />
        <mxCell id="WDlT2bcxv0zylc2aZcua-3" value="Option 1" style="strokeWidth=1;shadow=0;dashed=0;align=center;html=1;shape=mxgraph.mockup.forms.comboBox;strokeColor=#999999;fillColor=#ddeeff;align=left;fillColor2=#aaddff;mainText=;fontColor=#666666;fontSize=17;spacingLeft=3;" vertex="1" parent="WDlT2bcxv0zylc2aZcua-1">
          <mxGeometry x="760" y="565" width="150" height="30" as="geometry" />
        </mxCell>
        <mxCell id="WDlT2bcxv0zylc2aZcua-4" value="" style="verticalLabelPosition=bottom;shadow=0;dashed=0;align=center;html=1;verticalAlign=top;strokeWidth=1;shape=mxgraph.mockup.forms.horSlider;strokeColor=#999999;sliderStyle=basic;sliderPos=20;handleStyle=circle;fillColor2=#ddeeff;" vertex="1" parent="WDlT2bcxv0zylc2aZcua-1">
          <mxGeometry x="760" y="625" width="150" height="30" as="geometry" />
        </mxCell>
        <mxCell id="WDlT2bcxv0zylc2aZcua-5" value="" style="verticalLabelPosition=bottom;shadow=0;dashed=0;align=center;html=1;verticalAlign=top;strokeWidth=1;shape=mxgraph.mockup.misc.volumeSlider;barPos=80;fillColor=#cccccc;strokeColor=#999999;fillColor2=#ddeeff;" vertex="1" parent="WDlT2bcxv0zylc2aZcua-1">
          <mxGeometry x="780" y="405" width="250" height="30" as="geometry" />
        </mxCell>
        <mxCell id="WDlT2bcxv0zylc2aZcua-6" value="" style="verticalLabelPosition=bottom;shadow=0;dashed=0;align=center;html=1;verticalAlign=top;strokeWidth=1;shape=mxgraph.mockup.misc.volumeSlider;barPos=80;fillColor=#cccccc;strokeColor=#999999;fillColor2=#ddeeff;" vertex="1" parent="WDlT2bcxv0zylc2aZcua-1">
          <mxGeometry x="780" y="465" width="250" height="30" as="geometry" />
        </mxCell>
        <mxCell id="WDlT2bcxv0zylc2aZcua-7" value="" style="verticalLabelPosition=bottom;shadow=0;dashed=0;align=center;html=1;verticalAlign=top;strokeWidth=1;shape=mxgraph.mockup.misc.volumeSlider;barPos=80;fillColor=#cccccc;strokeColor=#999999;fillColor2=#ddeeff;" vertex="1" parent="WDlT2bcxv0zylc2aZcua-1">
          <mxGeometry x="780" y="435" width="250" height="30" as="geometry" />
        </mxCell>
        <mxCell id="WDlT2bcxv0zylc2aZcua-8" value="" style="verticalLabelPosition=bottom;shadow=0;dashed=0;align=center;html=1;verticalAlign=top;strokeWidth=1;shape=mxgraph.mockup.misc.help_icon;" vertex="1" parent="WDlT2bcxv0zylc2aZcua-1">
          <mxGeometry x="1550" y="850" width="32" height="32" as="geometry" />
        </mxCell>
        <mxCell id="7zktFs8ASU3R_U80i4Fg-0" value="&lt;font color=&quot;#6c1641&quot;&gt;Options&lt;/font&gt;" style="strokeWidth=1;shadow=0;dashed=0;align=center;html=1;shape=mxgraph.mockup.buttons.button;strokeColor=#E993BE;fontColor=#ffffff;mainText=;buttonStyle=round;fontSize=17;fontStyle=1;fillColor=#93E9BE;whiteSpace=wrap;" vertex="1" parent="WDlT2bcxv0zylc2aZcua-1">
          <mxGeometry x="40" y="505" width="150" height="50" as="geometry" />
        </mxCell>
        <mxCell id="7zktFs8ASU3R_U80i4Fg-1" value="&lt;font color=&quot;#6c1641&quot;&gt;Load&lt;/font&gt;" style="strokeWidth=1;shadow=0;dashed=0;align=center;html=1;shape=mxgraph.mockup.buttons.button;strokeColor=#E993BE;fontColor=#ffffff;mainText=;buttonStyle=round;fontSize=17;fontStyle=1;fillColor=#93E9BE;whiteSpace=wrap;" vertex="1" parent="WDlT2bcxv0zylc2aZcua-1">
          <mxGeometry x="40" y="420" width="150" height="50" as="geometry" />
        </mxCell>
        <mxCell id="7zktFs8ASU3R_U80i4Fg-2" value="&lt;font color=&quot;#6c1641&quot;&gt;Continue&lt;/font&gt;" style="strokeWidth=1;shadow=1;dashed=0;align=center;html=1;shape=mxgraph.mockup.buttons.button;strokeColor=#E993BE;fontColor=#ffffff;mainText=;buttonStyle=round;fontSize=17;fontStyle=1;fillColor=#93E9BE;whiteSpace=wrap;" vertex="1" parent="WDlT2bcxv0zylc2aZcua-1">
          <mxGeometry x="40" y="335" width="150" height="50" as="geometry" />
        </mxCell>
        <mxCell id="7zktFs8ASU3R_U80i4Fg-3" value="&lt;font color=&quot;#6c1641&quot;&gt;New Game&lt;/font&gt;" style="strokeWidth=1;shadow=0;dashed=0;align=center;html=1;shape=mxgraph.mockup.buttons.button;strokeColor=#E993BE;fontColor=#ffffff;mainText=;buttonStyle=round;fontSize=17;fontStyle=1;fillColor=#93E9BE;whiteSpace=wrap;" vertex="1" parent="WDlT2bcxv0zylc2aZcua-1">
          <mxGeometry x="40" y="255" width="150" height="50" as="geometry" />
        </mxCell>
        <mxCell id="7zktFs8ASU3R_U80i4Fg-4" value="&lt;font color=&quot;#6c1641&quot;&gt;Quit&lt;/font&gt;" style="strokeWidth=1;shadow=0;dashed=0;align=center;html=1;shape=mxgraph.mockup.buttons.button;strokeColor=#E993BE;fontColor=#ffffff;mainText=;buttonStyle=round;fontSize=17;fontStyle=1;fillColor=#93E9BE;whiteSpace=wrap;" vertex="1" parent="WDlT2bcxv0zylc2aZcua-1">
          <mxGeometry x="40" y="595" width="150" height="50" as="geometry" />
        </mxCell>
        <mxCell id="F7lOpCa6n99dUwBeOvew-0" value="&lt;p style=&quot;text-align: justify;&quot;&gt;&lt;span style=&quot;font-family: &amp;quot;Comic Sans MS&amp;quot;; font-size: 72px; font-style: normal; font-variant-ligatures: normal; font-variant-caps: normal; font-weight: 400; letter-spacing: normal; orphans: 2; text-align: center; text-indent: 0px; text-transform: none; widows: 2; word-spacing: 0px; -webkit-text-stroke-width: 0px; text-decoration-thickness: initial; text-decoration-style: initial; text-decoration-color: initial; float: none; display: inline !important;&quot;&gt;&lt;font color=&quot;#93e9be&quot;&gt;Hacker&#39;s VS Robots&lt;/font&gt;&lt;/span&gt;&lt;/p&gt;" style="text;html=1;strokeColor=none;fillColor=none;align=center;verticalAlign=middle;whiteSpace=wrap;rounded=0;fontFamily=Comic Sans MS;fontSize=72;rotation=0;" vertex="1" parent="WDlT2bcxv0zylc2aZcua-1">
          <mxGeometry x="450" y="50" width="700" height="130" as="geometry" />
        </mxCell>
      </root>
    </mxGraphModel>
  </diagram>
</mxfile>
